HIERARCHY
ROOT Hips
{
	OFFSET 0.000000 0.000000 0.000000
	CHANNELS 6 Xposition Yposition Zposition Yrotation Xrotation Zrotation
	JOINT Chest
	{
		OFFSET 0.000000 -0.009281 11.569106
		CHANNELS 3 Yrotation Xrotation Zrotation
		JOINT Chest2
		{
			OFFSET -0.000000 0.016865 9.269641
			CHANNELS 3 Yrotation Xrotation Zrotation
			JOINT Chest3
			{
				OFFSET -0.000000 0.000001 8.374491
				CHANNELS 3 Yrotation Xrotation Zrotation
				JOINT Chest4
				{
					OFFSET -0.000000 0.000001 8.374493
					CHANNELS 3 Yrotation Xrotation Zrotation
					JOINT Neck
					{
						OFFSET -0.000000 0.000002 12.152554
						CHANNELS 3 Yrotation Xrotation Zrotation
						JOINT Head
						{
							OFFSET -0.000000 0.040101 7.802319
							CHANNELS 3 Yrotation Xrotation Zrotation
							End Site
							{
								OFFSET -0.000000 0.020947 14.853096
							}
						}
					}
					JOINT RightCollar
					{
						OFFSET 2.894404 0.000001 6.791374
						CHANNELS 3 Yrotation Xrotation Zrotation
						JOINT RightShoulder
						{
							OFFSET 13.574684 0.000001 0.000000
							CHANNELS 3 Yrotation Xrotation Zrotation
							JOINT RightElbow
							{
								OFFSET 23.923903 0.000002 0.000000
								CHANNELS 3 Yrotation Xrotation Zrotation
								JOINT RightWrist
								{
									OFFSET 19.846718 0.012767 0.000000
									CHANNELS 3 Yrotation Xrotation Zrotation
									End Site
									{
										OFFSET 14.973145 0.000001 0.000000
									}
								}
							}
						}
					}
					JOINT LeftCollar
					{
						OFFSET -2.894404 0.000001 6.791374
						CHANNELS 3 Yrotation Xrotation Zrotation
						JOINT LeftShoulder
						{
							OFFSET -13.574684 -0.000001 0.000000
							CHANNELS 3 Yrotation Xrotation Zrotation
							JOINT LeftElbow
							{
								OFFSET -23.923903 -0.000002 0.000000
								CHANNELS 3 Yrotation Xrotation Zrotation
								JOINT LeftWrist
								{
									OFFSET -19.846718 0.012763 0.000000
									CHANNELS 3 Yrotation Xrotation Zrotation
									End Site
									{
										OFFSET -14.973145 -0.000001 0.000000
									}
								}
							}
						}
					}
				}
			}
		}
	}
	JOINT RightHip
	{
		OFFSET 9.469263 0.004643 0.045487
		CHANNELS 3 Yrotation Xrotation Zrotation
		JOINT RightKnee
		{
			OFFSET 0.000000 0.002661 -40.478676
			CHANNELS 3 Yrotation Xrotation Zrotation
			JOINT RightAnkle
			{
				OFFSET 0.000000 0.049106 -35.224068
				CHANNELS 3 Yrotation Xrotation Zrotation
				JOINT RightToe
				{
					OFFSET -0.000001 12.539529 -6.151390
					CHANNELS 3 Yrotation Xrotation Zrotation
					End Site
					{
						OFFSET -0.000001 5.044994 -1.291870
					}
				}
			}
		}
	}
	JOINT LeftHip
	{
		OFFSET -9.469263 0.004641 0.045487
		CHANNELS 3 Yrotation Xrotation Zrotation
		JOINT LeftKnee
		{
			OFFSET 0.000000 0.002661 -40.478676
			CHANNELS 3 Yrotation Xrotation Zrotation
			JOINT LeftAnkle
			{
				OFFSET 0.000000 0.049106 -35.224068
				CHANNELS 3 Yrotation Xrotation Zrotation
				JOINT LeftToe
				{
					OFFSET -0.000001 12.539529 -6.151390
					CHANNELS 3 Yrotation Xrotation Zrotation
					End Site
					{
						OFFSET -0.000001 5.044994 -1.291870
					}
				}
			}
		}
	}
}
MOTION
Frames: 8
Frame Time: 0.016667
-15.173692 -60.983078 83.306923 -1.638490 1.401831 -123.836343 -1.308083 -3.926805 3.522311 -0.601021 -1.808861 1.484336 -0.601021 -1.808860 1.484338 -0.446337 -1.358116 1.111384 0.947072 -11.635583 -2.821089 0.589940 14.560386 -4.999126 10.402359 6.364241 -1.645505 43.073260 -16.086378 -16.007166 -30.296202 -60.810622 89.555227 -45.680517 41.426986 50.181939 -7.756172 5.728656 -7.109309 -40.884153 -8.056278 21.464375 -4.071537 -65.089462 -58.823905 30.258438 15.488963 -74.719449 -6.755765 6.321666 -11.857883 7.043204 -19.341709 -17.081200 -7.234633 6.519706 -4.955026 4.611491 2.165893 0.040786 0.120739 -0.842006 15.722570 -0.400360 -5.044611 11.299462 0.727808 2.553951 7.861749 0.712084 1.093072 0.200371 
-15.028749 -60.584263 83.382301 -1.476798 1.557683 -124.028927 -1.259780 -3.820048 3.622927 -0.587055 -1.794991 1.518130 -0.587055 -1.794991 1.518131 -0.435798 -1.347713 1.136781 0.857318 -11.586054 -2.802022 0.424314 14.649673 -5.002896 10.529957 6.363572 -1.513754 43.228390 -16.113335 -16.162085 -30.217361 -60.805909 89.223308 -45.761844 41.776640 50.259312 -8.012480 5.932546 -7.182623 -40.636105 -8.403620 21.397589 -3.915331 -65.001613 -58.909446 30.193661 15.476947 -74.882970 -7.129959 6.689876 -10.030111 7.730421 -19.146373 -18.233373 -7.390971 6.048203 -5.640920 3.886398 1.796901 -0.026811 -0.306833 -0.333012 14.320181 -0.840974 -5.747307 12.343246 0.736274 2.897278 8.449040 1.054260 1.195891 0.307546 
-14.780047 -60.047447 83.466072 -1.528383 1.697056 -124.015458 -1.289389 -3.861669 3.554103 -0.548560 -1.791700 1.516499 -0.548560 -1.791700 1.516494 -0.406942 -1.345147 1.135670 0.729376 -11.593067 -2.756318 0.199058 14.633260 -4.970753 10.597584 6.148619 -1.348646 43.244878 -15.972220 -16.141597 -30.096566 -60.882981 88.979477 -45.962430 42.219530 50.229959 -8.085529 6.050302 -6.933517 -40.744035 -8.762268 21.065166 -3.383611 -64.918694 -59.103867 30.053498 15.561345 -75.029095 -7.469952 7.484000 -8.468537 7.527039 -20.159599 -20.823850 -6.805591 5.877531 -4.486554 3.467642 1.779759 -0.038425 -0.354580 0.092442 12.949329 -1.293615 -6.425235 12.606394 0.672158 2.677925 9.202165 1.083647 1.455737 0.305912 
-14.676571 -59.566414 83.463661 -1.572939 1.816224 -123.944629 -1.296458 -3.877004 3.466517 -0.521855 -1.794847 1.499754 -0.521854 -1.794847 1.499751 -0.386955 -1.347428 1.123188 0.627086 -11.589051 -2.698682 0.027781 14.638528 -4.904831 10.494900 6.125353 -1.497693 43.308949 -16.092197 -16.149923 -30.044810 -60.838339 88.987386 -46.071443 42.416981 50.187339 -7.816832 5.495433 -6.849191 -41.010799 -8.519332 20.594485 -2.928552 -64.807301 -59.466209 30.110240 15.473449 -75.107014 -7.650707 8.271286 -6.960272 7.163436 -21.030386 -21.615267 -6.145607 5.758684 -4.282300 2.861866 1.531184 -0.065279 -0.548972 0.696912 11.619229 -1.237922 -7.237044 11.764186 0.629750 2.264739 10.062831 0.881261 1.734255 0.283146 
-14.632625 -59.142521 83.462364 -1.644002 1.895395 -123.758656 -1.340616 -3.953413 3.310896 -0.498796 -1.811211 1.472466 -0.498795 -1.811211 1.472460 -0.369704 -1.359620 1.102777 0.558651 -11.572854 -2.636476 -0.077052 14.667773 -4.815770 10.488985 6.328110 -1.470345 43.390249 -16.140639 -16.489975 -30.046129 -60.617499 89.020123 -45.975298 42.309993 50.246177 -7.726595 5.208348 -7.062018 -40.983990 -8.331852 20.570665 -2.791815 -64.762283 -59.823721 30.344010 15.203880 -75.010879 -7.818619 8.771785 -6.028817 6.458414 -21.218783 -19.390603 -5.020366 5.711056 -4.404269 1.673213 0.861202 -0.082536 -0.775176 1.292294 10.033305 -0.614038 -8.010453 9.805826 0.334861 1.838254 10.797079 0.590921 1.806172 0.219023 
-14.712413 -58.851017 83.481819 -1.617492 1.946837 -123.540213 -1.369049 -4.001504 3.162289 -0.487614 -1.818044 1.456850 -0.487614 -1.818044 1.456851 -0.361346 -1.364705 1.091097 0.542681 -11.539483 -2.589918 -0.088690 14.730404 -4.734364 10.497629 6.154848 -1.434502 43.389125 -15.743274 -16.581298 -30.353361 -60.396207 89.293003 -45.861534 42.153496 50.313888 -7.720813 5.339673 -7.016997 -40.751002 -8.568195 20.559136 -2.950966 -64.901871 -59.966636 30.588428 14.933182 -74.755608 -7.543862 9.021832 -5.494619 4.950265 -20.972446 -14.701712 -3.628606 6.091378 -4.917195 0.494236 -0.156028 -0.030423 -0.767314 1.763589 8.189236 0.190913 -8.363339 6.745163 -0.046118 1.197989 11.479156 0.199573 1.770510 0.134564 
-14.918281 -58.566849 83.527199 -1.539186 1.981946 -123.318478 -1.362230 -4.027024 3.065316 -0.500403 -1.829063 1.429850 -0.500402 -1.829062 1.429846 -0.370992 -1.372978 1.070798 0.575840 -11.497230 -2.553497 -0.010745 14.810965 -4.651177 10.521905 6.199476 -1.483639 43.315909 -15.494581 -16.651426 -30.622627 -60.312544 89.545829 -45.808402 42.008938 50.326719 -7.746124 5.433079 -7.022595 -40.497097 -8.608625 20.525142 -3.287265 -65.079354 -59.825210 30.649852 14.857994 -74.580058 -6.835475 9.154475 -4.380365 3.447653 -20.861983 -10.133614 -2.417811 7.294529 -5.104266 -0.407442 -1.241779 0.044335 -0.543991 2.199871 6.026647 0.968251 -8.369494 3.008651 -0.418058 0.340843 11.794786 -0.243510 1.715343 0.069224 
-15.224700 -58.201431 83.584854 -1.481143 2.024638 -123.069258 -1.391901 -4.015964 2.994221 -0.520299 -1.833248 1.398578 -0.520298 -1.833248 1.398583 -0.385996 -1.376135 1.047286 0.641768 -11.479118 -2.540814 0.120690 14.847178 -4.598490 10.504992 6.342837 -1.610626 43.302269 -15.400697 -16.681456 -30.504557 -60.348246 89.445671 -45.695362 41.818660 50.347899 -7.719565 5.303753 -7.149842 -40.443234 -8.421662 20.532778 -3.424155 -65.112617 -59.733624 30.661023 14.947734 -74.696923 -6.005511 9.190050 -1.988424 2.157201 -20.724401 -7.485022 -0.642458 8.826593 -3.609649 -1.394341 -2.200825 0.069153 -0.266400 2.591572 3.347365 1.671775 -8.044914 -0.678608 -0.704866 -0.611879 11.519880 -0.736196 1.603046 0.017026 
